<svg width="48" height="48" viewBox="0 0 48 48" fill="none" xmlns="http://www.w3.org/2000/svg">
<path d="M0 24C0 10.7452 10.7452 0 24 0C37.2548 0 48 10.7452 48 24C48 37.2548 37.2548 48 24 48C10.7452 48 0 37.2548 0 24Z" fill="#6186B0"/>
<path d="M37.77 20.8839C38.9516 20.2029 39.3585 18.6893 38.676 17.5101C38.5139 17.2284 38.2976 16.9816 38.0396 16.784C37.7816 16.5864 37.487 16.4419 37.1728 16.3588C36.9626 16.3025 36.746 16.274 36.5284 16.2739C36.0996 16.2739 35.676 16.3858 35.2946 16.6059C35.0126 16.7672 34.7653 16.9828 34.5672 17.2403C34.3691 17.4978 34.224 17.792 34.1404 18.1059C34.0554 18.4191 34.0335 18.746 34.076 19.0677C34.1185 19.3894 34.2245 19.6995 34.3879 19.9798C35.0704 21.1588 36.5887 21.5655 37.7698 20.8839M39.3058 23.4099L39.9024 24.441L37.0042 26.1099L36.2818 22.3881C35.1054 22.3059 33.9876 21.6684 33.3546 20.5749C32.8642 19.7286 32.7347 18.7416 32.9876 17.7969C33.1115 17.3319 33.3265 16.896 33.6201 16.5146C33.9137 16.1332 34.2801 15.8138 34.698 15.5751C35.1148 15.3333 35.5754 15.1764 36.0532 15.1136C36.531 15.0508 37.0164 15.0832 37.4816 15.2091C37.9473 15.332 38.3839 15.546 38.7663 15.8389C39.1486 16.1317 39.4691 16.4974 39.7091 16.9149C40.7203 18.6624 40.1184 20.9059 38.3662 21.9148C38.087 22.076 37.7878 22.1995 37.4762 22.2821L37.8568 24.2439L39.3058 23.4099ZM35.1358 30.6206C34.8546 30.4575 34.5439 30.3517 34.2216 30.3093C33.8993 30.2668 33.5718 30.2887 33.258 30.3735C32.9437 30.4564 32.649 30.6008 32.3909 30.7984C32.1328 30.9961 31.9166 31.2429 31.7546 31.5248C31.2881 32.3306 31.3406 33.2878 31.7916 34.0343L32.3046 34.6241L32.2927 34.6348C32.406 34.7312 32.5271 34.8223 32.6608 34.8992V34.8984C32.942 35.0616 33.2528 35.1674 33.5751 35.2099C33.8974 35.2523 34.225 35.2304 34.5388 35.1456C34.853 35.0625 35.1476 34.918 35.4056 34.7204C35.6636 34.5228 35.8799 34.276 36.042 33.9943C36.7245 32.8151 36.3176 31.3016 35.1358 30.6206ZM37.0753 34.5896C36.8352 35.0071 36.5147 35.3728 36.1324 35.6656C35.75 35.9584 35.3134 36.1725 34.8478 36.2955C34.3826 36.4212 33.8972 36.4536 33.4195 36.3908C32.9417 36.3281 32.4811 36.1714 32.0642 35.9299V35.9295C31.8181 35.787 31.5896 35.6159 31.3836 35.4199L30.5269 36.1611L31.9753 36.9943L31.3787 38.0258L28.4788 36.3563L30.6606 34.47C30.0913 33.3938 30.0675 32.0588 30.7213 30.9294C31.2111 30.0825 32.0021 29.4773 32.9488 29.2241C33.4139 29.0981 33.8994 29.0656 34.3772 29.1283C34.855 29.1911 35.3156 29.3479 35.7324 29.5898C36.1502 29.8287 36.5164 30.1482 36.8098 30.5297C37.1032 30.9112 37.318 31.3471 37.4417 31.8122C37.5676 32.2763 37.6001 32.7609 37.5372 33.2377C37.4743 33.7145 37.3173 34.174 37.0753 34.5896ZM24.084 37.1396C24.084 35.7771 22.9727 34.6688 21.6077 34.6688C20.2427 34.6688 19.1321 35.7771 19.1321 37.1396C19.1321 38.5014 20.2429 39.6098 21.6077 39.6098C22.9727 39.6098 24.084 38.5014 24.084 37.1396ZM25.2772 37.1396C25.2772 39.1579 23.6312 40.8002 21.6079 40.8002C19.5847 40.8002 17.9389 39.1579 17.9389 37.1396C17.9389 36.8556 17.9741 36.5807 18.0362 36.3152L16.4983 35.7836V37.5771H15.3051V34.1117L18.4931 35.214C19.1409 34.1741 20.2929 33.4783 21.6077 33.4783C23.6312 33.4783 25.2772 35.1204 25.2772 37.1396ZM13.6556 27.5831C13.4936 27.3015 13.2773 27.0548 13.0194 26.8572C12.7614 26.6596 12.4669 26.515 12.1528 26.4319C11.8389 26.3472 11.5112 26.3254 11.1888 26.3678C10.8664 26.4102 10.5556 26.516 10.2742 26.679C9.99242 26.8404 9.74539 27.056 9.54746 27.3135C9.34953 27.571 9.20462 27.8652 9.12112 28.179C9.03587 28.4921 9.01385 28.819 9.05635 29.1408C9.09884 29.4625 9.205 29.7725 9.36862 30.0527C9.5305 30.3345 9.74669 30.5813 10.0047 30.7789C10.2626 30.9765 10.5572 31.121 10.8714 31.2039C11.5086 31.3748 12.1762 31.2879 12.7502 30.957C13.9318 30.276 14.3387 28.7623 13.6556 27.5831ZM13.3466 31.9879C12.7911 32.31 12.1603 32.4798 11.5181 32.4801C11.1956 32.4799 10.8745 32.4375 10.563 32.3539C10.0973 32.2309 9.66057 32.0169 9.27813 31.7241C8.89569 31.4313 8.5751 31.0655 8.33493 30.648C8.09272 30.2325 7.9356 29.7729 7.8727 29.2961C7.8098 28.8193 7.84238 28.3347 7.96855 27.8706C8.09227 27.4055 8.30705 26.9695 8.60045 26.5881C8.89385 26.2066 9.26004 25.8871 9.67781 25.6481V25.6476C9.84842 25.551 10.0263 25.468 10.2099 25.3993L9.83999 23.4962L8.39755 24.3291L7.7998 23.2988L10.6926 21.6285L11.3779 25.1593C11.7431 25.1464 12.1082 25.1877 12.4612 25.2819C12.927 25.405 13.3637 25.6191 13.7461 25.9119C14.1286 26.2048 14.4492 26.5705 14.6895 26.988C15.7007 28.7355 15.0982 30.9789 13.3466 31.9879ZM14.5057 13.5399C14.1308 13.3234 13.7055 13.2094 13.2726 13.2096C12.4161 13.2096 11.5821 13.6524 11.1238 14.4441C10.9604 14.7245 10.8543 15.0346 10.8119 15.3564C10.7694 15.6782 10.7913 16.0053 10.8763 16.3185C10.96 16.6323 11.1051 16.9265 11.3032 17.1838C11.5014 17.4412 11.7486 17.6567 12.0306 17.8179C12.3117 17.9814 12.6224 18.0873 12.9448 18.1297C13.2672 18.1721 13.5948 18.1501 13.9086 18.0649C14.2227 17.982 14.5173 17.8377 14.7752 17.6402C15.0332 17.4427 15.2494 17.196 15.4114 16.9144C16.0944 15.7346 15.6876 14.2209 14.5057 13.5399ZM16.4182 13.8084C17.0726 14.9102 17.1311 16.3232 16.4451 17.5097C16.2048 17.9269 15.8842 18.2925 15.5019 18.5851C15.1196 18.8778 14.6831 19.0918 14.2176 19.2148C13.7524 19.3403 13.267 19.3726 12.7892 19.3098C12.3115 19.2471 11.8509 19.0905 11.4339 18.8492C11.0161 18.6102 10.6499 18.2907 10.3563 17.9092C10.0628 17.5277 9.84776 17.0919 9.72374 16.6268C9.59771 16.1625 9.56524 15.6779 9.62824 15.201C9.69123 14.7241 9.84843 14.2645 10.0907 13.8489C11.1024 12.1007 13.3507 11.4996 15.1024 12.5091C15.3004 12.6234 15.4811 12.7547 15.6493 12.8978L17.1718 11.5787L15.7275 10.7447L16.3252 9.71382L19.215 11.3835L16.4182 13.8084ZM28.4736 10.8615C28.4736 9.49951 27.3628 8.39063 25.9972 8.39063C24.6322 8.39063 23.5209 9.49951 23.5209 10.8615C23.5209 12.2239 24.6322 13.3316 25.9972 13.3316C27.3628 13.3316 28.4736 12.2239 28.4736 10.8615ZM32.2999 13.6196L29.2414 12.5674C28.6251 13.7286 27.4027 14.5221 25.9972 14.5221C23.9737 14.5221 22.3279 12.8799 22.3279 10.8615C22.3279 8.84307 23.9737 7.2002 25.9974 7.2002C28.0204 7.2002 29.6668 8.84307 29.6668 10.8615C29.6657 11.0544 29.649 11.2469 29.6167 11.4371L31.107 11.9501V10.4233H32.3001L32.2999 13.6196ZM26.4022 19.5756L25.3093 19.0974L21.1061 28.6498L22.1989 29.1283L26.4022 19.5756ZM30.9379 24.1326L27.4935 20.7763L26.6606 21.6279L29.1082 24.0135L26.3713 26.0629L27.0876 27.0146L30.9379 24.1326ZM20.0728 26.5599L16.6288 23.2041L20.4791 20.3214L21.1954 21.2738L18.4579 23.3226L20.9057 25.7081L20.0728 26.5599Z" fill="white"/>
</svg>
