<svg width="48" height="48" viewBox="0 0 48 48" fill="none" xmlns="http://www.w3.org/2000/svg">
<rect width="48" height="48" rx="24" fill="#A96EAF"/>
<path d="M13.8375 9.2343C13.9934 9.37019 14.1001 9.55384 14.1408 9.75665C14.1815 9.95945 14.1539 10.17 14.0625 10.3556C14.0458 10.4102 14.0376 10.4671 14.0381 10.5243C14.0381 10.6424 14.0681 10.8674 14.3513 11.1487C14.4881 11.2856 14.5931 11.3831 14.7075 11.4899C14.8013 11.5762 14.9006 11.6662 15.0263 11.7899C15.27 12.0224 15.5269 12.2962 15.7575 12.6393C16.2356 13.3574 16.5 14.2556 16.5 15.5624C16.5 18.3187 14.6681 20.25 12.75 20.25C10.8319 20.25 9 18.3187 9 15.5624C9 14.9512 9.16313 14.2218 9.38813 13.5487C9.61313 12.8756 9.92812 12.1762 10.2919 11.6137C10.725 10.8824 11.3344 10.2693 11.8069 9.8568C12.0669 9.63012 12.3372 9.41552 12.6169 9.21368L12.6994 9.15743C12.8713 9.04282 13.0763 8.98822 13.2824 9.00213C13.4886 9.01603 13.6825 9.09765 13.8375 9.2343ZM12.75 22.125C13.8965 22.1233 15.008 21.7297 15.9 21.0093C15.9887 21.2731 16.0638 21.5387 16.125 21.8062C16.5 23.4375 16.5 25.3987 16.5 26.7656V26.8125C16.5 32.0381 15.7894 35.0025 15.0075 36.6975C14.6137 37.5506 14.1956 38.0944 13.8338 38.4356C13.6864 38.5765 13.5242 38.701 13.35 38.8069C13.2701 38.8549 13.1868 38.8969 13.1006 38.9325C13.1006 38.9325 12.8888 39 12.75 39C12.6112 39 12.3994 38.9325 12.3994 38.9325C12.3132 38.8969 12.2299 38.8549 12.15 38.8069C11.9758 38.701 11.8136 38.5765 11.6662 38.4356C11.3044 38.0925 10.8863 37.5506 10.4925 36.6975C9.71062 35.0025 9 32.0381 9 26.8125V26.7656C9 25.3968 9 23.4375 9.375 21.8062C9.43625 21.5387 9.51125 21.2731 9.6 21.0093C10.492 21.7297 11.6035 22.1233 12.75 22.125ZM22.125 29.625C20.7844 29.625 19.5075 29.3437 18.3562 28.8375C18.3812 28.17 18.3938 27.4762 18.3938 26.7562C19.5295 27.4074 20.8158 27.7501 22.125 27.75V24C22.125 23.0054 22.5201 22.0516 23.2234 21.3483C23.9266 20.645 24.8804 20.25 25.875 20.25H29.625C29.6252 18.9182 29.2707 17.6104 28.5981 16.4609C27.9255 15.3115 26.9589 14.3619 25.7978 13.7097C24.6366 13.0576 23.3227 12.7263 21.9912 12.7501C20.6596 12.7739 19.3584 13.1517 18.2213 13.8449C18.1044 13.2158 17.8906 12.6086 17.5875 12.0449C19.0149 11.2555 20.6235 10.852 22.2545 10.8746C23.8855 10.8971 25.4824 11.3448 26.8874 12.1734C28.2925 13.0021 29.457 14.1829 30.2659 15.5994C31.0748 17.0158 31.5002 18.6188 31.5 20.25H35.25C36.2446 20.25 37.1984 20.645 37.9016 21.3483C38.6049 22.0516 39 23.0054 39 24V33.375C39 34.3695 38.6049 35.3234 37.9016 36.0266C37.1984 36.7299 36.2446 37.125 35.25 37.125H25.875C24.8804 37.125 23.9266 36.7299 23.2234 36.0266C22.5201 35.3234 22.125 34.3695 22.125 33.375V29.625ZM31.3125 22.125C30.9428 23.9256 30.0529 25.5782 28.7531 26.8781C27.4533 28.1779 25.8007 29.0678 24 29.4375V33.375C24 33.8723 24.1975 34.3492 24.5492 34.7008C24.9008 35.0524 25.3777 35.25 25.875 35.25H35.25C35.7473 35.25 36.2242 35.0524 36.5758 34.7008C36.9275 34.3492 37.125 33.8723 37.125 33.375V24C37.125 23.5027 36.9275 23.0258 36.5758 22.6741C36.2242 22.3225 35.7473 22.125 35.25 22.125H31.3125ZM29.3888 22.125H25.875C25.3777 22.125 24.9008 22.3225 24.5492 22.6741C24.1975 23.0258 24 23.5027 24 24V27.5137C25.2969 27.1771 26.4803 26.5001 27.4277 25.5527C28.3751 24.6052 29.0521 23.4218 29.3888 22.125Z" fill="white"/>
</svg>
