<svg width="48" height="48" viewBox="0 0 48 48" fill="none" xmlns="http://www.w3.org/2000/svg">
<rect width="48" height="48" rx="24" fill="#61B380"/>
<path d="M9.55 26.625C9.13891 26.625 8.74467 26.7896 8.45399 27.0826C8.1633 27.3757 8 27.7731 8 28.1875C8 28.6019 8.1633 28.9993 8.45399 29.2924C8.74467 29.5854 9.13891 29.75 9.55 29.75C10.7833 29.75 11.966 30.2439 12.838 31.1229C13.7101 32.002 14.2 33.1943 14.2 34.4375C14.2 34.8519 14.3633 35.2493 14.654 35.5424C14.9447 35.8354 15.3389 36 15.75 36C16.1611 36 16.5553 35.8354 16.846 35.5424C17.1367 35.2493 17.3 34.8519 17.3 34.4375C17.3 32.3655 16.4835 30.3784 15.0301 28.9132C13.5767 27.4481 11.6054 26.625 9.55 26.625ZM8.4495 33.3281C8.234 33.5472 8.08764 33.8256 8.02886 34.1283C7.97008 34.4311 8.00152 34.7446 8.11921 35.0293C8.23689 35.3141 8.43557 35.5574 8.69019 35.7285C8.94481 35.8996 9.24398 35.9909 9.55 35.9909C9.85602 35.9909 10.1552 35.8996 10.4098 35.7285C10.6644 35.5574 10.8631 35.3141 10.9808 35.0293C11.0985 34.7446 11.1299 34.4311 11.0711 34.1283C11.0124 33.8256 10.866 33.5472 10.6505 33.3281C10.5064 33.1817 10.335 33.0654 10.1461 32.9861C9.95721 32.9068 9.75462 32.8659 9.55 32.8659C9.34538 32.8659 9.14279 32.9068 8.95391 32.9861C8.76503 33.0654 8.59359 33.1817 8.4495 33.3281ZM34.35 11H12.65C11.4167 11 10.234 11.4939 9.36195 12.3729C8.48991 13.252 8 14.4443 8 15.6875C8 16.1019 8.1633 16.4993 8.45399 16.7924C8.74467 17.0854 9.13891 17.25 9.55 17.25C9.96109 17.25 10.3553 17.0854 10.646 16.7924C10.9367 16.4993 11.1 16.1019 11.1 15.6875C11.1 15.2731 11.2633 14.8757 11.554 14.5826C11.8447 14.2896 12.2389 14.125 12.65 14.125H34.35C34.7611 14.125 35.1553 14.2896 35.446 14.5826C35.7367 14.8757 35.9 15.2731 35.9 15.6875V31.3125C35.9 31.7269 35.7367 32.1243 35.446 32.4174C35.1553 32.7104 34.7611 32.875 34.35 32.875H28.15C27.7389 32.875 27.3447 33.0396 27.054 33.3326C26.7633 33.6257 26.6 34.0231 26.6 34.4375C26.6 34.8519 26.7633 35.2493 27.054 35.5424C27.3447 35.8354 27.7389 36 28.15 36H34.35C35.5833 36 36.766 35.5061 37.638 34.6271C38.5101 33.748 39 32.5557 39 31.3125V15.6875C39 14.4443 38.5101 13.252 37.638 12.3729C36.766 11.4939 35.5833 11 34.35 11ZM9.55 20.375C9.13891 20.375 8.74467 20.5396 8.45399 20.8326C8.1633 21.1257 8 21.5231 8 21.9375C8 22.3519 8.1633 22.7493 8.45399 23.0424C8.74467 23.3354 9.13891 23.5 9.55 23.5C12.4276 23.5 15.1873 24.6523 17.2221 26.7035C19.2569 28.7547 20.4 31.5367 20.4 34.4375C20.4 34.8519 20.5633 35.2493 20.854 35.5424C21.1447 35.8354 21.5389 36 21.95 36C22.3611 36 22.7553 35.8354 23.046 35.5424C23.3367 35.2493 23.5 34.8519 23.5 34.4375C23.5 30.7079 22.0303 27.131 19.4141 24.4938C16.798 21.8566 13.2498 20.375 9.55 20.375Z" fill="white"/>
</svg>
