<svg width="48" height="48" viewBox="0 0 48 48" fill="none" xmlns="http://www.w3.org/2000/svg">
<rect width="48" height="48" rx="24" fill="#BBA257"/>
<path d="M10.8729 36C10.0539 36 9.37067 35.725 8.82311 35.175C8.27556 34.625 8.00119 33.9381 8 33.1143V13.8857C8 13.0631 8.27437 12.3768 8.82311 11.8268C9.37185 11.2768 10.0545 11.0012 10.8711 11H37.1289C37.9467 11 38.6293 11.2756 39.1769 11.8268C39.7244 12.378 39.9988 13.0643 40 13.8857V33.1161C40 33.9375 39.7256 34.6238 39.1769 35.175C38.6281 35.7262 37.9455 36.0012 37.1289 36H10.8729ZM28.4444 26.1786H30.2222V22.2643H34.1191V20.4786H30.2222V16.5643H28.4444V20.4786H24.5476V22.2643H28.4444V26.1786ZM9.77778 29.9571H38.2222V13.8857C38.2222 13.5643 38.1197 13.3006 37.9147 13.0946C37.7096 12.8887 37.4477 12.7857 37.1289 12.7857H10.8711C10.5523 12.7857 10.2904 12.8887 10.0853 13.0946C9.8803 13.3006 9.77778 13.5643 9.77778 13.8857V29.9571Z" fill="white"/>
</svg>
